<?xml version="1.0" encoding="UTF-8"?>
<svg id="Layer_2" data-name="Layer 2" xmlns="http://www.w3.org/2000/svg" viewBox="0 0 160.37 161.37">
  <defs>
    <style>
      .cls-1 {
        fill: #f9faf8;
      }

      .cls-1, .cls-2, .cls-3 {
        stroke-width: 0px;
      }

      .cls-2 {
        fill: #00a7b3;
      }

      .cls-3 {
        fill: #006970;
      }
    </style>
  </defs>
  <g id="Layer_1-2" data-name="Layer 1">
    <g>
      <path class="cls-1" d="m90.81,161.15c-25.78,1.77-61.99-6.87-79.57-27.19C-10.36,109,1.29,75.87,28.2,61.12c6.71-58.24,25.05-79.49,45.4-9.48,17.07,3.6,13.6-2.15,20.45-15.96,3.69-7.43,14.95-31.62,21.7-34.67,21.02-9.5,21.36,51.43,18.71,61.61,17.32,9.71,28.36,30.51,25.44,50.39-4.23,28.81-43.24,46.37-69.1,48.14Z"/>
      <g>
        <path class="cls-2" d="m86.32,151.17c-18.28.82-40.98-4.26-56.38-14.47C.56,117.21,4.05,84.31,36.18,71.1c.2-14.47,3.79-40.99,13.22-51.64,4.21-.33,16.44,37.67,17.71,43.15l1.75,1.25h22.95c2.28-6.92,21.97-52.98,27.94-51.89,8.42,1.54,7.97,51.83,6.24,59.62,32.45,13.51,32.75,48.45,3.74,66.6-12.1,7.57-29.26,12.34-43.4,12.97Z"/>
        <g>
          <path class="cls-1" d="m90.31,139.69C39.69,143.52-.18,109.96,29.44,86.81c6.3-4.92,15.38-6.92,15.72-7.73.25-14.16,1.25-28.4,4.74-42.16q5.74,19.46,11.47,38.91c12.39-2.17,24.95-1.38,37.42-.5l19.46-48.39c.9,17.4-1.77,34.74-2.25,52.13,9.51,1.95,21.73,8.94,24.45,18.96,7.2,26.51-29.82,40.12-50.14,41.66Z"/>
          <g>
            <path class="cls-3" d="m42.42,112.75c-9.46,1.8-10.99-11.76-3.99-13.47,10.74-2.62,11.82,11.98,3.99,13.47Z"/>
            <path class="cls-3" d="m122.24,112.75c-8.33.89-10.29-11.78-3.49-13.47,10.76-2.68,11.91,12.57,3.49,13.47Z"/>
            <path class="cls-3" d="m87.76,118.61c-5.42,7.96-16.09-.55-12.35-6.7,5.74-9.45,16.83.11,12.35,6.7Z"/>
          </g>
        </g>
      </g>
    </g>
  </g>
</svg>